HIERARCHY
ROOT pelvis
{
  OFFSET 0 100 0
  CHANNELS 6 Xposition Yposition Zposition Zrotation Xrotation Yrotation
  JOINT pelvis_right_femur
  {
    OFFSET -10.78128 -3.44521 -0.5502486
    CHANNELS 3 Zrotation Xrotation Yrotation
    JOINT right_femur_tibia
    {
      OFFSET -0.8047443 -44.0398 -0.1307829
      CHANNELS 3 Zrotation Xrotation Yrotation
      JOINT right_tibia_foot
      {
        OFFSET 3.006224 -47.83518 -5
        CHANNELS 3 Zrotation Xrotation Yrotation
        End Site
        {
          OFFSET 0 -5 15
        }
      }
    }
  }
  JOINT pelvis_left_femur
  {
    OFFSET 10.78128 -3.44521 -0.5502486
    CHANNELS 3 Zrotation Xrotation Yrotation
    JOINT left_femur_tibia
    {
      OFFSET 0.8047443 -44.0398 -0.1307829
      CHANNELS 3 Zrotation Xrotation Yrotation
      JOINT left_tibia_foot
      {
        OFFSET -4.370144 -48.10324 -4.275266
        CHANNELS 3 Zrotation Xrotation Yrotation
        End Site
        {
          OFFSET 0 -5 15
        }
      }
    }
  }
  JOINT pelvis_spine1
  {
    OFFSET 0 6.468898 -3.129235
    CHANNELS 3 Zrotation Xrotation Yrotation
    JOINT spine1
    {
      OFFSET 0 23.15396 4.99043
      CHANNELS 3 Zrotation Xrotation Yrotation
      JOINT spine2
      {
        OFFSET 0 20.79997 -5.064912
        CHANNELS 3 Zrotation Xrotation Yrotation
        JOINT neck
        {
          OFFSET 0 14.38658 9.616178
          CHANNELS 3 Zrotation Xrotation Yrotation
          End Site
          {
            OFFSET 0 20 0
          }
        }
      }
      JOINT right_manubrium
      {
        OFFSET -5.722621 16.35077 3.967754
        CHANNELS 3 Zrotation Xrotation Yrotation
        JOINT right_clavicle
        {
          OFFSET -13.16364 1.694482 -4.693211
          CHANNELS 3 Zrotation Xrotation Yrotation
          JOINT right_humerus
          {
            OFFSET -28.5034 -0.3100689 -2.792744
            CHANNELS 3 Zrotation Xrotation Yrotation
            JOINT right_radius
            {
              OFFSET -25.15693 0.02248979 -1.271978
              CHANNELS 3 Zrotation Xrotation Yrotation
              End Site
              {
                OFFSET -15 0 0
              }
            }
          }
        }
      }
      JOINT left_manubrium
      {
        OFFSET 5.722621 16.35077 3.967754
        CHANNELS 3 Zrotation Xrotation Yrotation
        JOINT left_clavicle
        {
          OFFSET 13.16364 1.694482 -4.693211
          CHANNELS 3 Zrotation Xrotation Yrotation
          JOINT left_humerus
          {
            OFFSET 29.39168 -1.063119 -2.237045
            CHANNELS 3 Zrotation Xrotation Yrotation
            JOINT left_radius
            {
              OFFSET 24.59957 -0.9528479 0.9047498
              CHANNELS 3 Zrotation Xrotation Yrotation
              End Site
              {
                OFFSET 15 -0 -0
              }
            }
          }
        }
      }
    }
  }
}
MOTION
Frames: 17
Frame Time: 0.0416666666667
-1896.702 103.0749 473.7268 -1.609879 7.857437 -166.4289 6.462429 -15.76433 -5.564586 -0 6.909947 -0 -12.04986 7.760009 0.6722564 -3.993886 10.38511 -5.434102 -0 43.02838 -0 5.473604 -9.774369 14.90305 -1.447386 -0.6059647 7.286986 1.162476 11.0143 -7.566553 -0.958404 19.24748 7.445906 7.45555 -21.09257 3.238224 0.3909663 -22.73952 11.56348 87.02875 33.07266 -16.12637 -0 0 22.03125 -17.86232 5.812008 1.331758 9.990178 -26.50919 -4.490821 -89.59377 2.513708 20.35515 0 0 -14.53206 20.98094 8.491684 -17.98358
-1898.026 103.7415 467.5278 -1.480697 8.962316 -167.2773 7.232638 -12.05046 -4.910983 -0 7.834906 -0 -12.61878 6.608942 0.2791053 -3.262079 7.242724 -5.001521 -0 49.01275 -0 4.859727 -7.531816 14.86617 -1.421949 -0.5679103 7.475226 0.8797224 11.29475 -7.19207 -0.8514362 19.6233 7.240475 7.312048 -20.38937 3.242283 0.8387913 -22.86751 11.63618 86.62737 33.70047 -15.24981 -0 0 22.10941 -18.04597 6.266937 1.721442 9.50595 -26.13083 -4.508506 -90.08824 2.859822 21.49814 0 0 -12.32985 20.97237 8.978516 -17.49731
-1899.244 104.5982 461.5981 -1.512597 10.10792 -168.2683 7.650456 -7.770901 -4.408516 -0 8.554249 -0 -13.12871 5.151437 -0.1127075 -2.507079 3.356292 -4.634402 -0 53.3291 -0 4.33588 -5.684372 15.16374 -1.39374 -0.5379326 7.690437 0.5429991 11.59674 -6.748359 -0.7276601 20.04462 7.00697 7.147938 -19.58178 3.250041 1.323442 -23.04216 11.7118 86.11509 34.38151 -14.16168 -0 0 22.2742 -18.31292 6.812484 2.211426 8.969268 -25.69562 -4.528421 -90.65995 3.242703 22.80354 0 0 -9.858887 20.93016 9.552019 -16.92791
-1900.362 105.4582 455.9845 -1.617374 11.07897 -169.3223 7.758719 -3.377608 -4.08977 -0 8.864526 -0 -13.53555 3.371666 -0.4147502 -1.692397 -0.9873223 -4.322137 -0 54.77652 -0 3.930442 -4.399987 15.67073 -1.367021 -0.5237969 7.922765 0.1616307 11.89476 -6.246797 -0.5898643 20.48397 6.760236 6.973805 -18.70969 3.267782 1.822691 -23.26482 11.78254 85.47517 35.08856 -12.86015 -0 0 22.55363 -18.67253 7.442487 2.802802 8.418858 -25.21692 -4.537209 -91.28878 3.639943 24.21056 0 0 -7.237965 20.85234 10.19058 -16.30288
-1901.407 106.1251 450.6629 -1.677982 11.74856 -170.3626 7.688712 0.7850792 -3.927715 -0 8.872228 -0 -13.81219 1.210195 -0.6104289 -0.7630451 -5.300324 -4.062394 -0 52.65062 -0 3.606523 -3.634551 16.23725 -1.345428 -0.5312849 8.161442 -0.2514091 12.16608 -5.703361 -0.4419314 20.91461 6.514915 6.799696 -17.81537 3.300173 2.315288 -23.53234 11.84195 84.70318 35.79202 -11.36173 -0 0 22.96221 -19.12583 8.143389 3.488652 7.8907 -24.71093 -4.524154 -91.95019 4.03077 25.65444 0 0 -4.588733 20.74021 10.86878 -15.65168
-1902.418 106.4584 445.55 -1.591359 12.10994 -171.3395 7.582065 4.543479 -3.832904 -0 8.968238 -0 -13.95779 -1.340686 -0.7690087 0.2926929 -9.019627 -3.886118 -0 47.09841 -0 3.297274 -3.188235 16.77687 -1.33143 -0.5628227 8.394945 -0.6787769 12.39313 -5.139855 -0.2892788 21.31269 6.284502 6.634624 -16.94205 3.349028 2.781178 -23.83514 11.8857 83.81511 36.46023 -9.711192 -0 0 23.49407 -19.66166 8.89082 4.249561 7.414993 -24.1976 -4.483671 -92.61474 4.397019 27.06735 0 0 -2.032934 20.5991 11.55702 -15.00531
-1903.435 106.4137 440.5328 -1.325614 12.25067 -172.2342 7.490618 7.881365 -3.696148 -0 9.606629 -0 -14.00401 -4.108089 -0.9786424 1.376482 -11.70284 -3.885188 -0 39.15386 -0 2.94814 -2.843754 17.29869 -1.325856 -0.6163386 8.611486 -1.098743 12.56595 -4.584235 -0.1390112 21.65935 6.080284 6.486156 -16.13187 3.412364 3.201941 -24.15621 11.91231 82.85374 37.06141 -7.988937 -0 0 24.11813 -20.25324 9.647832 5.050028 7.013364 -23.70072 -4.417131 -93.24901 4.723897 28.38102 -0 0 0.3124767 20.43873 12.22184 -14.39525
-1904.483 106.0393 435.4934 -0.9568542 12.2991 -173.0446 7.325302 10.87746 -3.453604 -0 11.05377 -0 -14.00215 -6.681602 -1.253175 2.265929 -13.17724 -4.2134 -0 30.41503 -0 2.531602 -2.497847 17.87575 -1.327608 -0.6848007 8.79978 -1.486126 12.68356 -4.069644 0.000311063 21.9422 5.910356 6.36008 -15.42361 3.48405 3.561319 -24.47145 11.92341 81.89033 37.56686 -6.312199 -0 0 24.77761 -20.85679 10.36588 5.837301 6.697032 -23.24724 -4.333459 -93.81781 5.00033 29.53078 -0 0 2.341554 20.27252 12.82704 -13.8518
-1905.582 105.4438 430.3277 -0.6504343 12.3852 -173.7695 6.898264 13.62664 -3.126589 -0 13.30486 -0 -13.99475 -8.488634 -1.490115 2.68588 -13.54258 -5.036472 -0 22.52205 -0 2.029922 -2.208494 18.58797 -1.333745 -0.7569027 8.949887 -1.814239 12.7538 -3.631952 0.1193265 22.1556 5.779084 6.260244 -14.85063 3.554334 3.845613 -24.7521 11.92351 81.01917 37.95403 -4.826747 -0 0 25.3957 -21.41394 10.98918 6.544426 6.466814 -22.86548 -4.248071 -94.28733 5.218726 30.46011 -0 0 3.965193 20.11594 13.33597 -13.40181
-1906.744 104.7577 424.9591 -0.5868797 12.62758 -174.3964 6.038525 16.16435 -2.808354 -0 16.21215 -0 -14.0033 -8.970198 -1.513807 2.430311 -13.02999 -6.450734 -0 16.67934 -0 1.420008 -2.143196 19.48 -1.340045 -0.8191116 9.05388 -2.057619 12.79067 -3.306001 0.2088833 22.29937 5.687344 6.188626 -14.43937 3.611403 4.043748 -24.96884 11.91901 80.34409 38.20775 -3.687929 -0 0 25.88773 -21.85931 11.46204 7.098578 6.315509 -22.58253 -4.18003 -94.62834 5.374246 31.1243 -0 0 5.114602 19.98391 13.71471 -13.06664
-1907.979 104.1097 419.3517 -0.8722859 13.1245 -174.8962 4.713484 18.40468 -2.615693 -0 19.68427 -0 -14.05389 -7.769082 -1.175168 1.464926 -11.82419 -8.413064 -0 13.40071 -0 0.6928105 -2.47397 20.54485 -1.342025 -0.8587574 9.106162 -2.195039 12.80967 -3.121236 0.261191 22.37607 5.633684 6.14572 -14.2089 3.643748 4.1469 -25.097 11.91643 79.95928 38.31851 -3.034162 -0 0 26.17784 -22.13261 11.73727 7.433727 6.23246 -22.42125 -4.147923 -94.81848 5.463828 31.49206 -0 0 5.741162 19.88799 13.9356 -12.86092
-1909.283 103.6191 413.5204 -1.482377 13.9237 -175.2297 3.087743 20.1058 -2.645859 -0 23.76021 -0 -14.21034 -4.859928 -0.437888 -0.03559959 -9.977638 -10.70686 -0 12.51307 -0 -0.09945336 -3.281482 21.72224 -1.33618 -0.8672788 9.103509 -2.212164 12.8222 -3.097701 0.2708124 22.38792 5.616133 6.131213 -14.1713 3.642766 4.147902 -25.12129 11.92048 79.92975 38.27883 -2.959846 -0 0 26.21569 -22.19208 11.78337 7.504161 6.209031 -22.39759 -4.165485 -94.8434 5.485228 31.54493 -0 0 5.81323 19.83448 13.98032 -12.79273
-1910.63 103.389 407.5332 -2.267423 14.97621 -175.3693 1.483407 20.88977 -2.957699 -0 28.46361 -0 -14.56033 -0.5990079 0.6062638 -1.73356 -7.469345 -12.96329 -0 13.34198 -0 -0.8105693 -4.509885 22.90299 -1.321071 -0.8425379 9.045056 -2.103462 12.83103 -3.243193 0.2352713 22.33438 5.63403 6.14477 -14.33219 3.604839 4.040889 -25.03875 11.93241 80.27676 38.08058 -3.495472 -0 0 25.98829 -22.02475 11.58879 7.294371 6.243169 -22.51876 -4.238112 -94.6968 5.436322 31.27548 -0 0 5.312451 19.82388 13.84176 -12.86497
-1911.972 103.4832 401.4984 -3.014526 16.1103 -175.3279 0.2468508 20.34773 -3.561026 -0 33.51928 -0 -15.14504 4.315309 1.784676 -3.255661 -4.345891 -14.75951 -0 14.98059 -0 -1.225883 -5.986879 23.94104 -1.297934 -0.7894673 8.932436 -1.873229 12.82837 -3.551876 0.1552736 22.21167 5.689091 6.186636 -14.69076 3.532373 3.821802 -24.85915 11.9493 80.97191 37.71592 -4.599855 -0 0 25.52349 -21.65 11.16313 6.822236 6.341371 -22.78237 -4.361113 -94.38056 5.314833 30.68624 -0 0 4.233063 19.85205 13.52469 -13.07692
-1913.251 103.8936 395.5312 -3.540397 17.0624 -175.168 -0.4204809 18.22183 -4.402563 -0 38.15528 -0 -15.88248 8.992898 2.89976 -4.351263 -0.8196036 -15.76986 -0 16.57337 -0 -1.153105 -7.501574 24.67391 -1.270648 -0.7189407 8.770065 -1.535816 12.79737 -4.004215 0.03472478 22.01433 5.785162 6.257756 -15.23865 3.433642 3.490169 -24.60298 11.96452 81.94052 37.18288 -6.165537 -0 0 24.88511 -21.11571 10.53619 6.13531 6.517248 -23.17616 -4.519952 -93.90556 5.118721 29.7908 -0 0 2.586764 19.91186 13.04546 -13.42479
-1914.417 104.5209 389.7095 -3.772572 17.56515 -174.9713 -0.5578355 14.57805 -5.377134 -0 41.21956 -0 -16.55014 12.60522 3.766661 -4.983873 2.759263 -15.88468 -0 17.55397 -0 -0.5307078 -8.90452 24.9519 -1.245028 -0.6452541 8.565391 -1.114944 12.7169 -4.568151 -0.119293 21.73836 5.926529 6.359242 -15.95772 3.321538 3.052029 -24.29778 11.96936 83.07399 36.49331 -8.035727 -0 0 24.16087 -20.48854 9.755638 5.302198 6.786823 -23.678 -4.692422 -93.29335 4.847475 28.61746 -0 0 0.4131624 19.99484 12.43139 -13.90043
-1915.449 105.1967 384.042 -3.772574 17.44965 -174.7925 -0.39059 9.842507 -6.380512 -0 41.64845 -0 -16.86496 14.65227 4.253122 -5.295822 6.032207 -15.22617 -0 17.76273 -0 0.5238636 -10.1691 24.68117 -1.227583 -0.5828352 8.328892 -0.6418466 12.56834 -5.201708 -0.2966312 21.38521 6.115156 6.491244 -16.81753 3.211416 2.523225 -23.97349 11.95534 84.24873 35.67963 -10.02959 -0 0 23.44583 -19.84105 8.88306 4.401514 7.161569 -24.25635 -4.852489 -92.57775 4.504441 27.21403 0 0 -2.207299 20.09243 11.71965 -14.48857
